<?xml version="1.0" encoding="UTF-8"?>
<svg width="108px" height="108px" viewBox="0 0 108 108" version="1.1" xmlns="http://www.w3.org/2000/svg" xmlns:xlink="http://www.w3.org/1999/xlink">
    <title>TypeScript</title>
    <g id="TypeScript" stroke="none" stroke-width="1" fill="none" fill-rule="evenodd">
        <rect id="Rectangle" fill="#3178C6" x="0" y="0" width="108" height="108" rx="16"></rect>
        <g id="TS" transform="translate(12.000000, 12.000000)" fill="#FFFFFF" fill-rule="nonzero">
            <path d="M0,0 L64.8,0 L64.8,7.2 L32.4,7.2 L32.4,36 L25.2,36 L25.2,7.2 L0,7.2 L0,0 Z" id="T"></path>
            <path d="M51.2,25.6 C51.2,25.6 46.4,25.6 46.4,25.6 C46.4,25.6 46.4,72 46.4,72 C46.4,72 72,72 72,72 C72,72 72,64.8 72,64.8 C72,64.8 54.4,64.8 54.4,64.8 C54.4,64.8 54.4,57.6 54.4,57.6 C54.4,57.6 72,57.6 72,57.6 C72,57.6 72,50.4 72,50.4 C72,50.4 54.4,50.4 54.4,50.4 C54.4,50.4 54.4,32.8 54.4,32.8 C54.4,32.8 64,32.8 64,32.8 C64,32.8 68.8,32.8 68.8,25.6 C68.8,25.6 51.2,25.6 51.2,25.6 Z" id="S"></path>
            <path d="M76.8,32.8 L84,32.8 L84,64.8 C84,71.2 80.8,75.2 75.2,75.2 C70.4,75.2 68,72.8 66.4,70.4 L66.4,70.4 L72,66.4 C72.8,67.2 73.6,68 75.2,68 C76.8,68 77.6,67.2 77.6,66.4 C77.6,65.6 77.6,32.8 77.6,32.8 L76.8,32.8 Z" id="Tail"></path>
        </g>
    </g>
</svg>
